<?xml version="1.0" encoding="utf-8"?>
<!-- Generator: Adobe Illustrator 13.0.0, SVG Export Plug-In . SVG Version: 6.00 Build 14948)  -->
<!DOCTYPE svg PUBLIC "-//W3C//DTD SVG 1.1//EN" "http://www.w3.org/Graphics/SVG/1.1/DTD/svg11.dtd">
<svg version="1.1" id="Capa_1" xmlns="http://www.w3.org/2000/svg" xmlns:xlink="http://www.w3.org/1999/xlink" x="0px" y="0px"
	 width="841.89px" height="525.137px" viewBox="0 0 841.89 525.137" enable-background="new 0 0 841.89 525.137"
	 xml:space="preserve">
<path fill="#F9D47B" d="M497.937,257.938l20.297,2.301l7.865-16.558l0.238,1.852l29.904-16.557l0.604-2.777l3.748-2.725
	l11.063,7.327l13.986-2.989l5.729-8.173l22.119,5.185l5.516-2.302l7.18,1.904l-0.574-1.534l0.865-3.12l9.059-5.502l14.174-40.652
	l1.795-0.079l8.076-7.724l3.035,0.979l32.938-36.474l1.303-11.616l-1.672-3.09l-2.43-0.582l-1.609-16.848l-12.035-4.522
	l0.449-10.606l-1.531-2.327l-23.42-4.623l-8.887,8.854l-1.82-0.026l-3.133,4.044l-10.645-2.643l-3.984,3.068l-1.373,5.898
	L617,84.616l-7.627,5.924l-32.07-3.623l-0.922,5.052l-6.547,4.708l-12.168-1.164l-0.605-3.809l-2.641-1.771l-6.916,8.41
	l-14.277-4.813l-2.219,1.772l-5.771-1.72l-15.766,9.442l-46.559-3.095l0.689,6.497l0,0l3.771,3.263l1.557,5.819l1.609-0.423
	l4.619,27.454l-2.084,0.344l-11.482,52.872l10.109,2.829l-3.906,9.125l8.234,4.364l-0.158,2.301l-6.096,5.714l1.367,4.522
	l4.326,0.37l10.002,15.288l4.619,1.084l-2.164,2.645L497.937,257.938L497.937,257.938L497.937,257.938L497.937,257.938z"/>
<path fill="#F9D47B" d="M368.317,224.796l0.153-2.962l-6.81-2.143l4.564,2.804l1.479,4.417l0.688,0.503L368.317,224.796
	L368.317,224.796z M456.869,292.426l8.895-8.33l2.666-15.235l29.508-10.923L487.935,244l2.164-2.646l-4.617-1.084l-10.006-15.288
	l-4.326-0.37l-1.373-4.522l6.098-5.713l0.158-2.302l-8.234-4.364l3.906-9.125l-10.109-2.829l11.48-52.872l2.086-0.344l-4.619-27.454
	l-1.609,0.423l-1.559-5.819l-58.067-36.869l-0.896-3.148l-19.426-7.379l-1.108-10.051l-16.55-2.988l-2.718-4.603l-20.191,1.243
	l-0.026,0.026l2.037,6.795l-2.143,0.399l-0.528,1.878l-2.296-0.503l-9.476,8.781l-1.452,0.212l-1.9,1.904l-0.554,3.016l-2.688,0.864
	l-3.355-1.867l-1.451,0.622l-0.846,2.599l-1.37,0.665l-0.66,3.306l-2.563,1.481l-0.578,2.565l-10.901,9.151l-1.795-0.847
	l-8.762,11.955l5.701,36.87l-5.778,4.55l0,0l31.938,51.443l-0.212,3.967l3.935,4.391l1.021,7.947l-2.085,2.568l-11.761,1.466
	l-1.423,3.612l8.493,12.416l22.777-13.912l2.534,2.116l5.463-0.132l-1.848-5.423l1.584-0.211l3.722,6.269l1.689,0.581l0.075-0.079
	l-1.874-2.751l4.038-5.845l8.023,3.465l4.039,8.966l-2.297,5.66l5.332-2.222l5.762,27.992l6.3,1.287l2.854,8.622l-0.928,1.956
	l5.121,4.523l4.016,0.449l3.795-3.537l5.76,3.592l-1.029,2.592l1.931,0.926l-1.452,2.724l3.417,5.496l0,0l1.599,1.354l2.214-1.268
	l3.356,7.456l13.063-3.386l1.48-3.57l0.791,0.661l3.881-4.073l7.996,0.133l1.611,9.362l4.906,1.401L456.869,292.426L456.869,292.426
	L456.869,292.426L456.869,292.426z"/>
<path fill="#F9D47B" d="M368.317,224.796l0.153-2.962l-6.81-2.143l4.564,2.804l1.479,4.417l0.688,0.503L368.317,224.796
	L368.317,224.796z M297.026,140.319l31.938,51.443l-0.212,3.967l3.933,4.391l1.021,7.947l-2.085,2.567l-11.761,1.467l-1.425,3.612
	l8.494,12.416l22.778-13.912l2.534,2.116l5.463-0.133l-1.848-5.422l1.584-0.212l3.722,6.269l1.688,0.582l0.078-0.079l-1.874-2.751
	l4.038-5.845l8.023,3.465l4.039,8.966l-2.297,5.66l5.332-2.222l5.762,27.992l6.3,1.287l2.854,8.622l-0.928,1.957l5.121,4.523
	l4.016,0.448l3.795-3.537l5.76,3.591l-1.029,2.592l1.929,0.926l-1.45,2.725l3.417,5.496l-9.962,2.146l2.296,7.619l-8.345,5.422
	l-5.486-2.646l0.132-2.803l-3.646-0.055l-1.896,5.926l-2.903,0.688l-1.688-3.042l-4.064,0.292l-0.634,2.883l4.382,3.412
	l-25.787,17.271l-1.769-0.238l-2.854,3.568l0,0l-11.218,10.053l-8.895-14.045l0.053-1.586l-17.71,16.104l-1.584-4.521l4.012-8.308
	l-1.504-5.688l-9.766,2.539l4.091,5.739l-7.549,10.816l0.422,5.979l-8.921-8.543l-1.53,0.767l-1.32-1.586l-3.009-0.526l-1.874-2.938
	l-4.25,6.398l-21.485,5.133l-2.586,8.887l-55.044-8.607l0,0l-4.131-4.564l0.185,0.08l-2.138-2.987l5.674-36.419l-2.454-2.564
	l2.824-17.695l-6.361-7.166l3.801-3.096l0.501-7.75l5.49-2.434l-10.979-30.099l-16.576-1.852l0.845-5.634l3.378-1.454l2.851-7.01
	l28.479-7.405l0.528,3.57l3.748-0.396l0.897-7.803l10.795-4.628l-1.636-5.502l-2.481,0.477l4.17-7.882l-3.141-2.381l-1.267,0.053
	l-0.871,1.402l-5.015-5.634l0,0l29.693-8.781l4.17-18.303l13.567-9.893l2.639-0.079l1.821-1.561l2.059,0.477l2.507-1.746
	l6.414,2.539l0.238,1.904l-1.425-0.502l0.528,2.565l-5.648,5.66l0.687,5.078l3.325,0.396l10.426-8.596L297.026,140.319
	L297.026,140.319L297.026,140.319z"/>
<path fill="#F9D47B" d="M456.869,292.428l8.895-8.332l2.666-15.234l29.508-10.924l20.305,2.301l7.857-16.557l0.238,1.852
	l29.904-16.558l0.607-2.776l3.748-2.725l11.059,7.326l13.988-2.989l5.729-8.173l22.117,5.185l5.518-2.301l7.178,1.904l-0.58-1.534
	l0.871-3.121l9.061-5.501l14.174-40.652l1.795-0.08l8.076-7.723l3.031,0.979l6.99-4.152l3.885-10.633l9.057-3.227l42.633,26.086
	l-8.189,5.785L714,180.337l-3.008,12.801l1.055,1.693l-3.748,23.83l-8.762,1.244l3.537,14.282l-3.906,3.041l-2.402-1.27
	l-26.684,20.419l-0.793,8.358l-1.32,0.846l-0.158,20.022l-13.189-2.328l-4.309-5.687l-7.18-1.189l-4.408,16.717l-4.381,2.168
	l-4.223,9.707l-5.199-0.504l-1.77-1.799l-1.662-0.158l6.598,21.637l-11.322,11.082l2.402,12.457l-11.482,6.349l1.146,7.793
	l-66.199,0.885l-3.326,2.563l-5.516-0.104l-1.061,1.644l-0.846-0.188l-1.025-2.144l-2.592,0.74l-1.604-0.74l0,0l1.475-9.944
	l-60.389-35.813l-3.166,1.084L456.869,292.428L456.869,292.428L456.869,292.428L456.869,292.428z"/>
<path fill="#F9D47B" d="M608.822,361.845l28.795,1.467l6.492,7.459l4.223-2.379l20.008,2.114l11.957-18.25l15.467-1.321l1.855,1.642
	l10.451-4.734l21.723,18.73l7.391-2.462l-0.158-1.719l12.326-13.912l2.639-0.396l2.482-10.185l0.738-0.157l0.291,0.739l0.949,0.054
	l2.479-5.345l6.23-2.987l28.736-64.59l2.613,0.237l1.906-3.469l0,0l-14.738-11.104h-7.865l0.139,1.35l-22.99-33.591l1.531-33.67
	l1.314-1.587l-1.451-1.375l-14.855-0.661l-4.146-3.359l-5.121,1.243l-5.061-4.754l-8.189,5.785L714,180.34l-3.01,12.801l1.057,1.692
	l-3.748,23.831l-8.762,1.243l3.535,14.282l-3.906,3.042l-2.4-1.27L670.08,256.38l-0.791,8.357l-1.32,0.848l-0.158,20.021
	l-13.191-2.327l-4.309-5.688l-7.178-1.19l-4.408,16.716l-4.381,2.17l-4.223,9.707l-5.201-0.504l-1.77-1.799l-1.66-0.158
	l6.598,21.637l-11.322,11.082l2.4,12.457l-11.479,6.349L608.822,361.845L608.822,361.845L608.822,361.845L608.822,361.845z"/>
<path fill="#F7AA1E" d="M353.509,321.681l30.406-20.604l-4.382-3.412l0.634-2.883l4.064-0.291l1.688,3.043l2.904-0.688l1.896-5.925
	l3.646,0.054l-0.132,2.804l5.486,2.645l8.344-5.422l-2.3-7.617l9.966-2.147l1.599,1.354l2.215-1.268l3.355,7.456l13.064-3.386
	l1.479-3.57l0.793,0.661l3.879-4.073l7.998,0.133l1.607,9.363l4.91,1.4l0.236,3.121l0,0l7.707,27.4l3.168-1.084l60.389,35.813
	l-1.477,9.946l-81.584,3.756l-27.48,31.978l-66.934,14.941l-1.061-0.74l-9.734,17.009l0,0l-5.57-4.604l-2.798,1.508l-15.44-32.744
	l-2.217-0.08l-1.688,1.402l-0.848-1.508l-6.146,5.236l-10.532-1.322l-0.818-5.236l11.824,1.771l24.784-25.313l-0.792-0.158
	l3.352-13.014l-4.038-8.41l2.032-3.545l1.531-0.638l0.818-2.01l4.694-0.85l15.101,6.723l5.438-10.316l1.771-0.768l-2.512-8.992
	l1.641-1.432L353.509,321.681L353.509,321.681L353.509,321.681L353.509,321.681z"/>
<path fill="#F9D47B" d="M203.842,337.749l-4,5.517l1.111,10.979l0,0l-12.537,10.633l6.493,15.944l4.249,2.566l1.636-1.589
	l7.021,2.382l2.323,3.993l3.299,0.105l1.504,7.063l-2.032,1.455l0.713,3.095l8.63-1.479l-1.056,3.066l-8.657,4.707l-1.637-3.332
	l0.501-2.223l-2.428-3.016l0.422-1.375l-1.531-0.291l0.343-1.351l-3.088,2.354l21.484,36.791l3.801,1.109l9.818,17.166l1.241-0.898
	l18.898,4.152l10.636,12.457l1.795-1.402l8.288,4.789l2.375-1.402l10.373,10.289l23.49-12.643l-1.795-2.699l0.924-1.904
	l-0.924-1.508l0.29-4.52l-0.791,0.365l0.104-1.609l4.303-3.57l5.779,2.486l0.834,1.42l0,0l2.571-0.102l10.135-24.016l1.108-0.264
	l-5.569-4.605l-2.798,1.508l-15.44-32.741l-2.217-0.08l-1.689,1.401l-0.845-1.51l-6.146,5.236l-10.532-1.32l-0.818-5.235
	l11.824,1.771l24.784-25.313l-0.792-0.158l3.352-13.016l-4.038-8.408l2.032-3.545l1.531-0.637l0.818-2.01l4.693-0.849l15.102,6.719
	l5.438-10.313l1.771-0.769l-2.512-8.991l1.641-1.431l-5.938-5.478l0,0l-11.218,10.054l-8.896-14.045l0.055-1.587l-17.71,16.105
	l-1.584-4.521l4.012-8.307l-1.504-5.688l-9.77,2.539l4.094,5.736l-7.552,10.817l0.426,5.979l-8.921-8.545l-1.531,0.77l-1.319-1.586
	l-3.009-0.529l-1.874-2.938l-4.25,6.398l-21.485,5.131l-2.587,8.891L203.842,337.749L203.842,337.749L203.842,337.749
	L203.842,337.749z"/>
<path fill="#F9D47B" d="M203.842,337.749l-4.131-4.563l0.185,0.078l-2.138-2.988l5.674-36.42l-2.455-2.564l2.824-17.694
	l-6.361-7.169l3.801-3.094l0.501-7.75l5.49-2.434l-10.979-30.099l-16.576-1.852l0.845-5.634l3.378-1.455l2.85-7.009l28.479-7.405
	l0.528,3.57l3.748-0.396l0.897-7.803l10.795-4.629l-1.636-5.501l-2.481,0.476l4.17-7.882l-3.141-2.38l-1.267,0.053l-0.871,1.401
	l-25.866-15.419l-2.085-6.587l-11.033-1.719l1.083,1.957l-5.358,6.242l-1.742-2.01l-10.584-0.265l-5.49-12.537l-22.673-2.09
	l1.161-10.817l-17.767-4.619l0,0l-2.478,8.533l0.027,0.027l-5.833,20.762l-7.813,1.006l-1.108-2.222l-4.698-1.188l-2.534,3.358
	l0.422,2.54l-16.391,3.332l-32.993,66.335l0.686,1.401l-1.686,0.996l14.307,59.731l0,0l66.987,6.321l-0.871-1.693l64.215,56.468
	l5.094-0.211l-1.111-10.979L203.842,337.749L203.842,337.749L203.842,337.749L203.842,337.749z"/>
</svg>
