<svg width="1000" height="1000" viewBox="0 0 1000 1000" fill="none" xmlns="http://www.w3.org/2000/svg">
<path d="M1000 0H0V1000H1000V0Z" fill="#010101"/>
<path d="M669.739 205.317V264.177H798.113V304.596H669.739V368.056H811.503V408.505H624.555V164.893H811.503V205.317H669.739Z" fill="white"/>
<path d="M190.391 724.508V584.805H235.61V723.083C235.61 763.508 262.36 792.583 299.965 792.583C337.934 792.583 364.719 763.508 364.719 723.083V584.805H409.533V724.508C409.533 787.968 364.354 832.647 299.965 832.647C235.98 832.647 190.391 787.968 190.391 724.508Z" fill="white"/>
<path d="M615.824 794.583L642.099 763.663C665.099 784.068 691.323 795.538 724.178 795.538C755.248 795.538 772.238 780.968 772.238 763.423C772.238 741.748 754.913 734.814 714.668 725.824C665.019 714.729 625.669 700.409 625.669 654.204C625.669 611.205 663.404 580.205 716.363 580.205C756.163 580.205 785.918 595.255 811.112 616.39L785.088 647.999C763.163 629.38 739.833 618.5 714.973 618.5C689.773 618.5 670.734 633.535 670.734 650.729C670.734 670.789 688.908 677.949 728.733 686.894C779.678 698.079 817.462 716.934 817.462 759.588C817.462 803.643 782.658 834.798 722.753 834.798C679.619 834.808 643.584 819.998 615.824 794.583Z" fill="white"/>
<path d="M277.159 164.893H189.625V255.607H234.845V204.957H281.844C334.279 204.957 371.178 238.652 371.178 286.506C371.178 334.361 334.279 368.416 281.844 368.416H234.845V314.756H189.625V408.505H277.159C359.243 408.505 417.083 357.801 417.083 286.506C417.083 215.212 359.243 164.893 277.159 164.893Z" fill="white"/>
</svg>